<?xml version="1.0" encoding="UTF-8" standalone="no"?>
<!-- Created with Inkscape (http://www.inkscape.org/) -->
<svg
   xmlns:ns0="http://www.iki.fi/pav/software/textext/"
   xmlns:dc="http://purl.org/dc/elements/1.1/"
   xmlns:cc="http://creativecommons.org/ns#"
   xmlns:rdf="http://www.w3.org/1999/02/22-rdf-syntax-ns#"
   xmlns:svg="http://www.w3.org/2000/svg"
   xmlns="http://www.w3.org/2000/svg"
   xmlns:sodipodi="http://sodipodi.sourceforge.net/DTD/sodipodi-0.dtd"
   xmlns:inkscape="http://www.inkscape.org/namespaces/inkscape"
   width="300"
   height="300"
   id="svg2"
   sodipodi:version="0.32"
   inkscape:version="0.46"
   version="1.0"
   sodipodi:docname="triangle.svg"
   inkscape:output_extension="org.inkscape.output.svg.inkscape">
  <sodipodi:namedview
     id="base"
     pagecolor="#ffffff"
     bordercolor="#666666"
     borderopacity="1.0"
     gridtolerance="10000"
     guidetolerance="10"
     objecttolerance="10"
     inkscape:pageopacity="0.0"
     inkscape:pageshadow="2"
     inkscape:zoom="1"
     inkscape:cx="128.72306"
     inkscape:cy="245.33293"
     inkscape:document-units="px"
     inkscape:current-layer="layer1"
     showgrid="false"
     inkscape:window-width="1109"
     inkscape:window-height="729"
     inkscape:window-x="339"
     inkscape:window-y="76" />
  <defs
     id="defs4">
    <inkscape:perspective
       sodipodi:type="inkscape:persp3d"
       inkscape:vp_x="0 : 526.18109 : 1"
       inkscape:vp_y="0 : 1000 : 0"
       inkscape:vp_z="744.09448 : 526.18109 : 1"
       inkscape:persp3d-origin="372.04724 : 350.78739 : 1"
       id="perspective10" />
  </defs>
  <metadata
     id="metadata7">
    <rdf:RDF>
      <cc:Work
         rdf:about="">
        <dc:format>image/svg+xml</dc:format>
        <dc:type
           rdf:resource="http://purl.org/dc/dcmitype/StillImage" />
      </cc:Work>
    </rdf:RDF>
  </metadata>
  <g
     inkscape:label="Layer 1"
     inkscape:groupmode="layer"
     id="layer1">
    <path
       style="fill:#ffff80;fill-opacity:1;fill-rule:evenodd;stroke:#000000;stroke-width:1px;stroke-linecap:butt;stroke-linejoin:miter;stroke-opacity:1"
       d="M 76.3125,166.5 L 76,167 L 251,268 L 212.21875,166.5 L 76.3125,166.5 z"
       id="path2383" />
    <path
       style="fill:#90ff80;fill-opacity:1;fill-rule:evenodd;stroke:#000000;stroke-width:1px;stroke-linecap:butt;stroke-linejoin:miter;stroke-opacity:1"
       d="M 162,35 L 76.3125,166.5 L 212.21875,166.5 L 162,35 z"
       id="path3160" />
    <g
       ns0:preamble="C:\\Users\\kt\\Inkscape-TexText-Preambule.txt"
       ns0:text="$(x_1, y_1)$"
       word-spacing="normal"
       letter-spacing="normal"
       font-size-adjust="none"
       font-stretch="normal"
       font-weight="normal"
       font-variant="normal"
       font-style="normal"
       stroke-miterlimit="10.433"
       xml:space="preserve"
       transform="matrix(2,0,0,-2,-316.5,1439.5)"
       id="g3223"
       style="font-style:normal;font-variant:normal;font-weight:normal;font-stretch:normal;letter-spacing:normal;word-spacing:normal;text-anchor:start;fill:none;fill-opacity:1;fill-rule:evenodd;stroke:#000000;stroke-linecap:butt;stroke-linejoin:miter;stroke-miterlimit:10.43299961;stroke-dasharray:none;stroke-dashoffset:0;stroke-opacity:1">
<path
   id="path3225"
   d="M 226.73,704.74 L 226.73,704.74 L 226.73,704.75 L 226.73,704.75 L 226.73,704.75 L 226.73,704.76 L 226.73,704.76 L 226.73,704.76 L 226.73,704.77 L 226.73,704.77 L 226.72,704.77 L 226.72,704.78 L 226.72,704.78 L 226.71,704.79 L 226.71,704.79 L 226.71,704.8 L 226.7,704.81 L 226.7,704.81 L 226.69,704.82 L 226.69,704.82 L 226.68,704.83 L 226.68,704.83 L 226.68,704.84 L 226.67,704.84 L 226.67,704.84 L 226.66,704.85 L 226.66,704.85 L 226.66,704.86 L 226.65,704.86 L 226.65,704.87 L 226.64,704.87 L 226.64,704.88 L 226.63,704.89 L 226.62,704.89 L 226.62,704.9 L 226.61,704.9 L 226.61,704.91 L 226.6,704.92 L 226.59,704.93 L 226.58,704.93 L 226.58,704.94 L 226.57,704.95 L 226.56,704.96 C 225.32,706.21 225,708.09 225,709.61 C 225,711.34 225.38,713.08 226.6,714.32 C 226.73,714.44 226.73,714.46 226.73,714.49 C 226.73,714.56 226.69,714.59 226.63,714.59 C 226.53,714.59 225.63,713.91 225.05,712.65 C 224.54,711.55 224.42,710.45 224.42,709.61 C 224.42,708.84 224.53,707.63 225.08,706.51 C 225.68,705.28 226.53,704.64 226.63,704.64 C 226.69,704.64 226.73,704.67 226.73,704.74 z"
   style="fill:#000000;stroke-width:0" />
<path
   id="path3227"
   d="M 230.63,710.13 L 230.64,710.16 L 230.65,710.19 L 230.66,710.22 L 230.67,710.26 L 230.68,710.29 L 230.69,710.34 L 230.7,710.38 L 230.72,710.42 L 230.73,710.47 L 230.75,710.52 L 230.77,710.57 L 230.79,710.62 L 230.81,710.67 L 230.84,710.72 L 230.86,710.77 L 230.89,710.81 L 230.92,710.86 L 230.95,710.91 L 230.98,710.96 L 231.02,711 L 231.06,711.04 L 231.1,711.08 L 231.14,711.12 L 231.18,711.16 L 231.23,711.19 L 231.28,711.22 L 231.3,711.23 L 231.33,711.24 L 231.35,711.26 L 231.38,711.27 L 231.41,711.27 L 231.44,711.28 L 231.47,711.29 L 231.5,711.29 L 231.53,711.3 L 231.56,711.3 L 231.59,711.3 L 231.62,711.3 C 231.67,711.3 231.91,711.3 232.12,711.18 C 231.84,711.13 231.64,710.88 231.64,710.64 C 231.64,710.48 231.75,710.29 232.02,710.29 C 232.24,710.29 232.56,710.47 232.56,710.87 C 232.56,711.39 231.97,711.52 231.63,711.52 C 231.05,711.52 230.71,711 230.59,710.77 C 230.34,711.42 229.8,711.52 229.51,711.52 C 228.47,711.52 227.9,710.24 227.9,709.99 C 227.9,709.89 228,709.89 228.02,709.89 C 228.1,709.89 228.13,709.91 228.15,710 C 228.49,711.06 229.15,711.3 229.49,711.3 C 229.68,711.3 230.03,711.22 230.03,710.64 C 230.03,710.33 229.86,709.66 229.49,708.27 C 229.33,707.65 228.98,707.23 228.54,707.23 C 228.48,707.23 228.25,707.23 228.04,707.36 C 228.29,707.41 228.51,707.62 228.51,707.9 C 228.51,708.17 228.29,708.25 228.14,708.25 C 227.84,708.25 227.6,707.99 227.6,707.67 C 227.6,707.22 228.09,707.02 228.53,707.02 C 229.19,707.02 229.55,707.71 229.58,707.77 C 229.7,707.4 230.06,707.02 230.65,707.02 C 231.68,707.02 232.25,708.3 232.25,708.55 C 232.25,708.65 232.16,708.65 232.13,708.65 C 232.04,708.65 232.02,708.61 232,708.54 C 231.67,707.47 230.99,707.23 230.68,707.23 C 230.29,707.23 230.13,707.55 230.13,707.89 C 230.13,708.11 230.19,708.33 230.3,708.77 L 230.63,710.13 z"
   style="fill:#000000;stroke-width:0" />
<path
   id="path3229"
   d="M 235.33,710.05 L 235.33,710.06 L 235.33,710.07 L 235.33,710.08 L 235.33,710.09 L 235.33,710.09 L 235.33,710.1 L 235.33,710.11 L 235.33,710.12 L 235.33,710.12 L 235.33,710.13 L 235.33,710.13 L 235.33,710.14 L 235.33,710.15 L 235.33,710.15 L 235.33,710.16 L 235.33,710.16 L 235.33,710.17 L 235.33,710.17 L 235.32,710.18 L 235.32,710.19 L 235.32,710.2 L 235.31,710.2 L 235.31,710.21 L 235.31,710.22 L 235.3,710.22 L 235.3,710.23 L 235.29,710.23 L 235.28,710.23 L 235.28,710.24 L 235.27,710.24 L 235.26,710.24 L 235.25,710.24 L 235.24,710.24 L 235.24,710.24 L 235.23,710.24 L 235.23,710.25 L 235.22,710.25 L 235.22,710.25 L 235.21,710.25 L 235.2,710.25 L 235.2,710.25 L 235.19,710.25 L 235.18,710.25 L 235.17,710.25 L 235.17,710.25 L 235.16,710.25 L 235.15,710.25 L 235.14,710.25 L 235.13,710.25 L 235.12,710.25 C 234.68,709.81 234.04,709.8 233.76,709.8 L 233.76,709.55 C 233.93,709.55 234.39,709.55 234.77,709.75 L 234.77,706.2 C 234.77,705.97 234.77,705.88 234.07,705.88 L 233.81,705.88 L 233.81,705.63 C 233.93,705.64 234.79,705.66 235.05,705.66 C 235.26,705.66 236.14,705.64 236.29,705.63 L 236.29,705.88 L 236.03,705.88 C 235.33,705.88 235.33,705.97 235.33,706.2 L 235.33,710.05 z"
   style="fill:#000000;stroke-width:0" />
<path
   id="path3231"
   d="M 239.49,707.14 L 239.49,707.2 L 239.49,707.26 L 239.49,707.31 L 239.48,707.37 L 239.48,707.42 L 239.47,707.48 L 239.46,707.53 L 239.45,707.58 L 239.44,707.62 L 239.42,707.67 L 239.41,707.71 L 239.39,707.75 L 239.38,707.79 L 239.36,707.83 L 239.34,707.87 L 239.32,707.9 L 239.3,707.94 L 239.28,707.97 L 239.25,708 L 239.23,708.02 L 239.2,708.05 L 239.18,708.07 L 239.15,708.09 L 239.12,708.11 L 239.09,708.13 L 239.06,708.14 L 239.03,708.15 L 238.99,708.16 L 238.96,708.17 L 238.93,708.18 L 238.89,708.18 L 238.86,708.18 C 238.53,708.18 238.33,707.93 238.33,707.65 C 238.33,707.38 238.53,707.13 238.86,707.13 C 238.98,707.13 239.1,707.16 239.21,707.25 C 239.23,707.27 239.24,707.28 239.25,707.28 C 239.26,707.28 239.27,707.27 239.27,707.14 C 239.27,706.4 238.93,705.8 238.6,705.47 C 238.49,705.36 238.49,705.34 238.49,705.31 C 238.49,705.24 238.54,705.2 238.59,705.2 C 238.7,705.2 239.49,705.97 239.49,707.14 z"
   style="fill:#000000;stroke-width:0" />
<path
   id="path3233"
   d="M 246.75,710.92 L 246.75,710.92 L 246.75,710.93 L 246.75,710.94 L 246.75,710.94 L 246.76,710.95 L 246.76,710.96 L 246.76,710.97 L 246.76,710.98 L 246.77,710.99 L 246.77,711 L 246.77,711.01 L 246.77,711.02 L 246.77,711.03 L 246.78,711.03 L 246.78,711.04 L 246.78,711.05 L 246.78,711.05 L 246.78,711.06 L 246.78,711.06 L 246.78,711.07 L 246.78,711.08 L 246.78,711.09 L 246.79,711.1 L 246.79,711.11 L 246.79,711.12 L 246.79,711.13 L 246.79,711.13 L 246.79,711.14 L 246.79,711.15 C 246.79,711.33 246.65,711.41 246.5,711.41 C 246.4,711.41 246.24,711.35 246.15,711.21 C 246.13,711.16 246.05,710.85 246.01,710.67 C 245.94,710.41 245.87,710.14 245.81,709.87 L 245.36,708.08 C 245.32,707.93 244.89,707.23 244.23,707.23 C 243.73,707.23 243.62,707.67 243.62,708.04 C 243.62,708.5 243.79,709.12 244.12,709.99 C 244.28,710.4 244.32,710.51 244.32,710.71 C 244.32,711.16 244.01,711.52 243.51,711.52 C 242.56,711.52 242.19,710.08 242.19,709.99 C 242.19,709.89 242.29,709.89 242.31,709.89 C 242.41,709.89 242.42,709.91 242.47,710.07 C 242.74,711.01 243.14,711.3 243.48,711.3 C 243.56,711.3 243.73,711.3 243.73,710.99 C 243.73,710.74 243.63,710.48 243.56,710.29 C 243.16,709.23 242.98,708.67 242.98,708.2 C 242.98,707.31 243.61,707.02 244.19,707.02 C 244.58,707.02 244.92,707.18 245.2,707.46 C 245.07,706.95 244.95,706.46 244.55,705.93 C 244.29,705.59 243.91,705.3 243.46,705.3 C 243.32,705.3 242.87,705.33 242.7,705.72 C 242.86,705.72 242.99,705.72 243.13,705.84 C 243.23,705.93 243.33,706.06 243.33,706.25 C 243.33,706.56 243.06,706.6 242.96,706.6 C 242.73,706.6 242.4,706.44 242.4,705.95 C 242.4,705.45 242.84,705.09 243.46,705.09 C 244.48,705.09 245.51,705.99 245.79,707.11 L 246.75,710.92 z"
   style="fill:#000000;stroke-width:0" />
<path
   id="path3235"
   d="M 249.12,710.05 L 249.11,710.06 L 249.11,710.07 L 249.11,710.08 L 249.11,710.09 L 249.11,710.09 L 249.11,710.1 L 249.11,710.11 L 249.11,710.12 L 249.11,710.12 L 249.11,710.13 L 249.11,710.13 L 249.11,710.14 L 249.11,710.15 L 249.11,710.15 L 249.11,710.16 L 249.11,710.16 L 249.11,710.17 L 249.11,710.17 L 249.11,710.18 L 249.1,710.19 L 249.1,710.2 L 249.1,710.2 L 249.09,710.21 L 249.09,710.22 L 249.08,710.22 L 249.08,710.23 L 249.07,710.23 L 249.07,710.23 L 249.06,710.24 L 249.05,710.24 L 249.04,710.24 L 249.03,710.24 L 249.03,710.24 L 249.02,710.24 L 249.02,710.24 L 249.01,710.25 L 249,710.25 L 249,710.25 L 248.99,710.25 L 248.98,710.25 L 248.98,710.25 L 248.97,710.25 L 248.96,710.25 L 248.96,710.25 L 248.95,710.25 L 248.94,710.25 L 248.93,710.25 L 248.92,710.25 L 248.92,710.25 L 248.91,710.25 C 248.46,709.81 247.83,709.8 247.54,709.8 L 247.54,709.55 C 247.71,709.55 248.17,709.55 248.55,709.75 L 248.55,706.2 C 248.55,705.97 248.55,705.88 247.85,705.88 L 247.59,705.88 L 247.59,705.63 C 247.71,705.64 248.57,705.66 248.83,705.66 C 249.04,705.66 249.92,705.64 250.08,705.63 L 250.08,705.88 L 249.81,705.88 C 249.12,705.88 249.12,705.97 249.12,706.2 L 249.12,710.05 z"
   style="fill:#000000;stroke-width:0" />
<path
   id="path3237"
   d="M 254.13,709.61 L 254.13,709.69 L 254.13,709.76 L 254.13,709.84 L 254.13,709.92 L 254.12,710.09 L 254.11,710.27 L 254.09,710.45 L 254.07,710.64 L 254.04,710.84 L 254.01,711.03 L 253.97,711.24 L 253.92,711.45 L 253.87,711.66 L 253.81,711.87 L 253.74,712.08 L 253.66,712.29 L 253.62,712.4 L 253.57,712.51 L 253.52,712.61 L 253.47,712.72 C 252.88,713.94 252.02,714.59 251.92,714.59 C 251.86,714.59 251.82,714.55 251.82,714.49 C 251.82,714.46 251.82,714.44 252.01,714.26 C 252.99,713.28 253.55,711.69 253.55,709.61 C 253.55,707.91 253.18,706.16 251.95,704.91 C 251.82,704.79 251.82,704.77 251.82,704.74 C 251.82,704.68 251.86,704.64 251.92,704.64 C 252.02,704.64 252.92,705.31 253.5,706.58 C 254.01,707.67 254.13,708.78 254.13,709.61 z"
   style="fill:#000000;stroke-width:0" />
</g>    <g
       style="font-style:normal;font-variant:normal;font-weight:normal;font-stretch:normal;letter-spacing:normal;word-spacing:normal;text-anchor:start;fill:none;fill-opacity:1;fill-rule:evenodd;stroke:#000000;stroke-linecap:butt;stroke-linejoin:miter;stroke-miterlimit:10.43299961;stroke-dasharray:none;stroke-dashoffset:0;stroke-opacity:1"
       id="content"
       transform="matrix(2,0,0,-2,-438,1579.5)"
       xml:space="preserve"
       stroke-miterlimit="10.433"
       font-style="normal"
       font-variant="normal"
       font-weight="normal"
       font-stretch="normal"
       font-size-adjust="none"
       letter-spacing="normal"
       word-spacing="normal"
       ns0:text="$(x_2, y_2)$"
       ns0:preamble="C:\\Users\\kt\\Inkscape-TexText-Preambule.txt">
<path
   style="fill:#000000;stroke-width:0"
   d="M 226.73,704.74 L 226.73,704.74 L 226.73,704.75 L 226.73,704.75 L 226.73,704.75 L 226.73,704.76 L 226.73,704.76 L 226.73,704.76 L 226.73,704.77 L 226.73,704.77 L 226.72,704.77 L 226.72,704.78 L 226.72,704.78 L 226.71,704.79 L 226.71,704.79 L 226.71,704.8 L 226.7,704.81 L 226.7,704.81 L 226.69,704.82 L 226.69,704.82 L 226.68,704.83 L 226.68,704.83 L 226.68,704.84 L 226.67,704.84 L 226.67,704.84 L 226.66,704.85 L 226.66,704.85 L 226.66,704.86 L 226.65,704.86 L 226.65,704.87 L 226.64,704.87 L 226.64,704.88 L 226.63,704.89 L 226.62,704.89 L 226.62,704.9 L 226.61,704.9 L 226.61,704.91 L 226.6,704.92 L 226.59,704.93 L 226.58,704.93 L 226.58,704.94 L 226.57,704.95 L 226.56,704.96 C 225.32,706.21 225,708.09 225,709.61 C 225,711.34 225.38,713.08 226.6,714.32 C 226.73,714.44 226.73,714.46 226.73,714.49 C 226.73,714.56 226.69,714.59 226.63,714.59 C 226.53,714.59 225.63,713.91 225.05,712.65 C 224.54,711.55 224.42,710.45 224.42,709.61 C 224.42,708.84 224.53,707.63 225.08,706.51 C 225.68,705.28 226.53,704.64 226.63,704.64 C 226.69,704.64 226.73,704.67 226.73,704.74 z"
   id="path3278" />
<path
   style="fill:#000000;stroke-width:0"
   d="M 230.63,710.13 L 230.64,710.16 L 230.65,710.19 L 230.66,710.22 L 230.67,710.26 L 230.68,710.29 L 230.69,710.34 L 230.7,710.38 L 230.72,710.42 L 230.73,710.47 L 230.75,710.52 L 230.77,710.57 L 230.79,710.62 L 230.81,710.67 L 230.84,710.72 L 230.86,710.77 L 230.89,710.81 L 230.92,710.86 L 230.95,710.91 L 230.98,710.96 L 231.02,711 L 231.06,711.04 L 231.1,711.08 L 231.14,711.12 L 231.18,711.16 L 231.23,711.19 L 231.28,711.22 L 231.3,711.23 L 231.33,711.24 L 231.35,711.26 L 231.38,711.27 L 231.41,711.27 L 231.44,711.28 L 231.47,711.29 L 231.5,711.29 L 231.53,711.3 L 231.56,711.3 L 231.59,711.3 L 231.62,711.3 C 231.67,711.3 231.91,711.3 232.12,711.18 C 231.84,711.13 231.64,710.88 231.64,710.64 C 231.64,710.48 231.75,710.29 232.02,710.29 C 232.24,710.29 232.56,710.47 232.56,710.87 C 232.56,711.39 231.97,711.52 231.63,711.52 C 231.05,711.52 230.71,711 230.59,710.77 C 230.34,711.42 229.8,711.52 229.51,711.52 C 228.47,711.52 227.9,710.24 227.9,709.99 C 227.9,709.89 228,709.89 228.02,709.89 C 228.1,709.89 228.13,709.91 228.15,710 C 228.49,711.06 229.15,711.3 229.49,711.3 C 229.68,711.3 230.03,711.22 230.03,710.64 C 230.03,710.33 229.86,709.66 229.49,708.27 C 229.33,707.65 228.98,707.23 228.54,707.23 C 228.48,707.23 228.25,707.23 228.04,707.36 C 228.29,707.41 228.51,707.62 228.51,707.9 C 228.51,708.17 228.29,708.25 228.14,708.25 C 227.84,708.25 227.6,707.99 227.6,707.67 C 227.6,707.22 228.09,707.02 228.53,707.02 C 229.19,707.02 229.55,707.71 229.58,707.77 C 229.7,707.4 230.06,707.02 230.65,707.02 C 231.68,707.02 232.25,708.3 232.25,708.55 C 232.25,708.65 232.16,708.65 232.13,708.65 C 232.04,708.65 232.02,708.61 232,708.54 C 231.67,707.47 230.99,707.23 230.68,707.23 C 230.29,707.23 230.13,707.55 230.13,707.89 C 230.13,708.11 230.19,708.33 230.3,708.77 L 230.63,710.13 z"
   id="path3280" />
<path
   style="fill:#000000;stroke-width:0"
   d="M 236.52,706.9 L 236.28,706.9 C 236.26,706.74 236.19,706.33 236.1,706.26 C 236.04,706.22 235.51,706.22 235.41,706.22 L 234.13,706.22 C 234.86,706.87 235.1,707.06 235.52,707.39 C 236.04,707.8 236.52,708.23 236.52,708.89 C 236.52,709.73 235.78,710.25 234.89,710.25 C 234.02,710.25 233.44,709.64 233.44,709 C 233.44,708.65 233.74,708.61 233.81,708.61 C 233.98,708.61 234.18,708.73 234.18,708.98 C 234.18,709.11 234.13,709.35 233.77,709.35 C 233.98,709.84 234.46,710 234.78,710 C 235.48,710 235.84,709.46 235.84,708.89 C 235.84,708.29 235.41,707.81 235.19,707.56 L 233.51,705.9 C 233.44,705.84 233.44,705.83 233.44,705.63 L 236.31,705.63 L 236.52,706.9 z"
   id="path3282" />
<path
   style="fill:#000000;stroke-width:0"
   d="M 239.49,707.14 L 239.49,707.2 L 239.49,707.26 L 239.49,707.31 L 239.48,707.37 L 239.48,707.42 L 239.47,707.48 L 239.46,707.53 L 239.45,707.58 L 239.44,707.62 L 239.42,707.67 L 239.41,707.71 L 239.39,707.75 L 239.38,707.79 L 239.36,707.83 L 239.34,707.87 L 239.32,707.9 L 239.3,707.94 L 239.28,707.97 L 239.25,708 L 239.23,708.02 L 239.2,708.05 L 239.18,708.07 L 239.15,708.09 L 239.12,708.11 L 239.09,708.13 L 239.06,708.14 L 239.03,708.15 L 238.99,708.16 L 238.96,708.17 L 238.93,708.18 L 238.89,708.18 L 238.86,708.18 C 238.53,708.18 238.33,707.93 238.33,707.65 C 238.33,707.38 238.53,707.13 238.86,707.13 C 238.98,707.13 239.1,707.16 239.21,707.25 C 239.23,707.27 239.24,707.28 239.25,707.28 C 239.26,707.28 239.27,707.27 239.27,707.14 C 239.27,706.4 238.93,705.8 238.6,705.47 C 238.49,705.36 238.49,705.34 238.49,705.31 C 238.49,705.24 238.54,705.2 238.59,705.2 C 238.7,705.2 239.49,705.97 239.49,707.14 z"
   id="path3284" />
<path
   style="fill:#000000;stroke-width:0"
   d="M 246.75,710.92 L 246.75,710.92 L 246.75,710.93 L 246.75,710.94 L 246.75,710.94 L 246.76,710.95 L 246.76,710.96 L 246.76,710.97 L 246.76,710.98 L 246.77,710.99 L 246.77,711 L 246.77,711.01 L 246.77,711.02 L 246.77,711.03 L 246.78,711.03 L 246.78,711.04 L 246.78,711.05 L 246.78,711.05 L 246.78,711.06 L 246.78,711.06 L 246.78,711.07 L 246.78,711.08 L 246.78,711.09 L 246.79,711.1 L 246.79,711.11 L 246.79,711.12 L 246.79,711.13 L 246.79,711.13 L 246.79,711.14 L 246.79,711.15 C 246.79,711.33 246.65,711.41 246.5,711.41 C 246.4,711.41 246.24,711.35 246.15,711.21 C 246.13,711.16 246.05,710.85 246.01,710.67 C 245.94,710.41 245.87,710.14 245.81,709.87 L 245.36,708.08 C 245.32,707.93 244.89,707.23 244.23,707.23 C 243.73,707.23 243.62,707.67 243.62,708.04 C 243.62,708.5 243.79,709.12 244.12,709.99 C 244.28,710.4 244.32,710.51 244.32,710.71 C 244.32,711.16 244.01,711.52 243.51,711.52 C 242.56,711.52 242.19,710.08 242.19,709.99 C 242.19,709.89 242.29,709.89 242.31,709.89 C 242.41,709.89 242.42,709.91 242.47,710.07 C 242.74,711.01 243.14,711.3 243.48,711.3 C 243.56,711.3 243.73,711.3 243.73,710.99 C 243.73,710.74 243.63,710.48 243.56,710.29 C 243.16,709.23 242.98,708.67 242.98,708.2 C 242.98,707.31 243.61,707.02 244.19,707.02 C 244.58,707.02 244.92,707.18 245.2,707.46 C 245.07,706.95 244.95,706.46 244.55,705.93 C 244.29,705.59 243.91,705.3 243.46,705.3 C 243.32,705.3 242.87,705.33 242.7,705.72 C 242.86,705.72 242.99,705.72 243.13,705.84 C 243.23,705.93 243.33,706.06 243.33,706.25 C 243.33,706.56 243.06,706.6 242.96,706.6 C 242.73,706.6 242.4,706.44 242.4,705.95 C 242.4,705.45 242.84,705.09 243.46,705.09 C 244.48,705.09 245.51,705.99 245.79,707.11 L 246.75,710.92 z"
   id="path3286" />
<path
   style="fill:#000000;stroke-width:0"
   d="M 250.3,706.9 L 250.06,706.9 C 250.04,706.74 249.97,706.33 249.88,706.26 C 249.82,706.22 249.29,706.22 249.19,706.22 L 247.91,706.22 C 248.64,706.87 248.88,707.06 249.3,707.39 C 249.82,707.8 250.3,708.23 250.3,708.89 C 250.3,709.73 249.56,710.25 248.67,710.25 C 247.81,710.25 247.22,709.64 247.22,709 C 247.22,708.65 247.52,708.61 247.59,708.61 C 247.76,708.61 247.96,708.73 247.96,708.98 C 247.96,709.11 247.91,709.35 247.55,709.35 C 247.76,709.84 248.24,710 248.57,710 C 249.26,710 249.62,709.46 249.62,708.89 C 249.62,708.29 249.19,707.81 248.97,707.56 L 247.29,705.9 C 247.22,705.84 247.22,705.83 247.22,705.63 L 250.09,705.63 L 250.3,706.9 z"
   id="path3288" />
<path
   style="fill:#000000;stroke-width:0"
   d="M 254.13,709.61 L 254.13,709.69 L 254.13,709.76 L 254.13,709.84 L 254.13,709.92 L 254.12,710.09 L 254.11,710.27 L 254.09,710.45 L 254.07,710.64 L 254.04,710.84 L 254.01,711.03 L 253.97,711.24 L 253.92,711.45 L 253.87,711.66 L 253.81,711.87 L 253.74,712.08 L 253.66,712.29 L 253.62,712.4 L 253.57,712.51 L 253.52,712.61 L 253.47,712.72 C 252.88,713.94 252.02,714.59 251.92,714.59 C 251.86,714.59 251.82,714.55 251.82,714.49 C 251.82,714.46 251.82,714.44 252.01,714.26 C 252.99,713.28 253.55,711.69 253.55,709.61 C 253.55,707.91 253.18,706.16 251.95,704.91 C 251.82,704.79 251.82,704.77 251.82,704.74 C 251.82,704.68 251.86,704.64 251.92,704.64 C 252.02,704.64 252.92,705.31 253.5,706.58 C 254.01,707.67 254.13,708.78 254.13,709.61 z"
   id="path3290" />
</g>    <g
       ns0:preamble="C:\\Users\\kt\\Inkscape-TexText-Preambule.txt"
       ns0:text="$(x_3, y_3)$"
       word-spacing="normal"
       letter-spacing="normal"
       font-size-adjust="none"
       font-stretch="normal"
       font-weight="normal"
       font-variant="normal"
       font-style="normal"
       stroke-miterlimit="10.433"
       xml:space="preserve"
       transform="matrix(2,0,0,-2,-221.5,1698.5)"
       id="g3338"
       style="font-style:normal;font-variant:normal;font-weight:normal;font-stretch:normal;letter-spacing:normal;word-spacing:normal;text-anchor:start;fill:none;fill-opacity:1;fill-rule:evenodd;stroke:#000000;stroke-linecap:butt;stroke-linejoin:miter;stroke-miterlimit:10.43299961;stroke-dasharray:none;stroke-dashoffset:0;stroke-opacity:1">
<path
   id="path3340"
   d="M 226.73,704.74 L 226.73,704.74 L 226.73,704.75 L 226.73,704.75 L 226.73,704.75 L 226.73,704.76 L 226.73,704.76 L 226.73,704.76 L 226.73,704.77 L 226.73,704.77 L 226.72,704.77 L 226.72,704.78 L 226.72,704.78 L 226.71,704.79 L 226.71,704.79 L 226.71,704.8 L 226.7,704.81 L 226.7,704.81 L 226.69,704.82 L 226.69,704.82 L 226.68,704.83 L 226.68,704.83 L 226.68,704.84 L 226.67,704.84 L 226.67,704.84 L 226.66,704.85 L 226.66,704.85 L 226.66,704.86 L 226.65,704.86 L 226.65,704.87 L 226.64,704.87 L 226.64,704.88 L 226.63,704.89 L 226.62,704.89 L 226.62,704.9 L 226.61,704.9 L 226.61,704.91 L 226.6,704.92 L 226.59,704.93 L 226.58,704.93 L 226.58,704.94 L 226.57,704.95 L 226.56,704.96 C 225.32,706.21 225,708.09 225,709.61 C 225,711.34 225.38,713.08 226.6,714.32 C 226.73,714.44 226.73,714.46 226.73,714.49 C 226.73,714.56 226.69,714.59 226.63,714.59 C 226.53,714.59 225.63,713.91 225.05,712.65 C 224.54,711.55 224.42,710.45 224.42,709.61 C 224.42,708.84 224.53,707.63 225.08,706.51 C 225.68,705.28 226.53,704.64 226.63,704.64 C 226.69,704.64 226.73,704.67 226.73,704.74 z"
   style="fill:#000000;stroke-width:0" />
<path
   id="path3342"
   d="M 230.63,710.13 L 230.64,710.16 L 230.65,710.19 L 230.66,710.22 L 230.67,710.26 L 230.68,710.29 L 230.69,710.34 L 230.7,710.38 L 230.72,710.42 L 230.73,710.47 L 230.75,710.52 L 230.77,710.57 L 230.79,710.62 L 230.81,710.67 L 230.84,710.72 L 230.86,710.77 L 230.89,710.81 L 230.92,710.86 L 230.95,710.91 L 230.98,710.96 L 231.02,711 L 231.06,711.04 L 231.1,711.08 L 231.14,711.12 L 231.18,711.16 L 231.23,711.19 L 231.28,711.22 L 231.3,711.23 L 231.33,711.24 L 231.35,711.26 L 231.38,711.27 L 231.41,711.27 L 231.44,711.28 L 231.47,711.29 L 231.5,711.29 L 231.53,711.3 L 231.56,711.3 L 231.59,711.3 L 231.62,711.3 C 231.67,711.3 231.91,711.3 232.12,711.18 C 231.84,711.13 231.64,710.88 231.64,710.64 C 231.64,710.48 231.75,710.29 232.02,710.29 C 232.24,710.29 232.56,710.47 232.56,710.87 C 232.56,711.39 231.97,711.52 231.63,711.52 C 231.05,711.52 230.71,711 230.59,710.77 C 230.34,711.42 229.8,711.52 229.51,711.52 C 228.47,711.52 227.9,710.24 227.9,709.99 C 227.9,709.89 228,709.89 228.02,709.89 C 228.1,709.89 228.13,709.91 228.15,710 C 228.49,711.06 229.15,711.3 229.49,711.3 C 229.68,711.3 230.03,711.22 230.03,710.64 C 230.03,710.33 229.86,709.66 229.49,708.27 C 229.33,707.65 228.98,707.23 228.54,707.23 C 228.48,707.23 228.25,707.23 228.04,707.36 C 228.29,707.41 228.51,707.62 228.51,707.9 C 228.51,708.17 228.29,708.25 228.14,708.25 C 227.84,708.25 227.6,707.99 227.6,707.67 C 227.6,707.22 228.09,707.02 228.53,707.02 C 229.19,707.02 229.55,707.71 229.58,707.77 C 229.7,707.4 230.06,707.02 230.65,707.02 C 231.68,707.02 232.25,708.3 232.25,708.55 C 232.25,708.65 232.16,708.65 232.13,708.65 C 232.04,708.65 232.02,708.61 232,708.54 C 231.67,707.47 230.99,707.23 230.68,707.23 C 230.29,707.23 230.13,707.55 230.13,707.89 C 230.13,708.11 230.19,708.33 230.3,708.77 L 230.63,710.13 z"
   style="fill:#000000;stroke-width:0" />
<path
   id="path3344"
   d="M 234.9,707.95 L 234.95,707.95 L 235,707.95 L 235.05,707.94 L 235.1,707.94 L 235.14,707.93 L 235.19,707.91 L 235.23,707.9 L 235.28,707.88 L 235.32,707.86 L 235.36,707.84 L 235.4,707.82 L 235.44,707.8 L 235.47,707.77 L 235.51,707.74 L 235.54,707.71 L 235.57,707.67 L 235.6,707.64 L 235.63,707.6 L 235.66,707.56 L 235.68,707.52 L 235.71,707.47 L 235.73,707.42 L 235.75,707.37 L 235.77,707.32 L 235.78,707.27 L 235.8,707.21 L 235.81,707.16 L 235.82,707.1 L 235.82,707.03 L 235.83,706.97 L 235.83,706.9 L 235.84,706.83 C 235.84,705.97 235.33,705.71 234.93,705.71 C 234.65,705.71 234.04,705.79 233.74,706.2 C 234.07,706.22 234.15,706.44 234.15,706.59 C 234.15,706.81 233.98,706.97 233.77,706.97 C 233.57,706.97 233.38,706.85 233.38,706.57 C 233.38,705.92 234.1,705.49 234.94,705.49 C 235.91,705.49 236.58,706.14 236.58,706.83 C 236.58,707.38 236.13,707.92 235.37,708.08 C 236.1,708.34 236.36,708.86 236.36,709.29 C 236.36,709.84 235.73,710.25 234.96,710.25 C 234.18,710.25 233.59,709.87 233.59,709.32 C 233.59,709.08 233.74,708.95 233.95,708.95 C 234.17,708.95 234.31,709.11 234.31,709.3 C 234.31,709.5 234.17,709.65 233.95,709.66 C 234.2,709.97 234.68,710.05 234.94,710.05 C 235.25,710.05 235.69,709.89 235.69,709.29 C 235.69,709 235.59,708.68 235.41,708.46 C 235.18,708.2 234.99,708.18 234.64,708.16 C 234.46,708.15 234.45,708.15 234.41,708.14 C 234.4,708.14 234.34,708.13 234.34,708.05 C 234.34,707.95 234.41,707.95 234.52,707.95 L 234.9,707.95 z"
   style="fill:#000000;stroke-width:0" />
<path
   id="path3346"
   d="M 239.49,707.14 L 239.49,707.2 L 239.49,707.26 L 239.49,707.31 L 239.48,707.37 L 239.48,707.42 L 239.47,707.48 L 239.46,707.53 L 239.45,707.58 L 239.44,707.62 L 239.42,707.67 L 239.41,707.71 L 239.39,707.75 L 239.38,707.79 L 239.36,707.83 L 239.34,707.87 L 239.32,707.9 L 239.3,707.94 L 239.28,707.97 L 239.25,708 L 239.23,708.02 L 239.2,708.05 L 239.18,708.07 L 239.15,708.09 L 239.12,708.11 L 239.09,708.13 L 239.06,708.14 L 239.03,708.15 L 238.99,708.16 L 238.96,708.17 L 238.93,708.18 L 238.89,708.18 L 238.86,708.18 C 238.53,708.18 238.33,707.93 238.33,707.65 C 238.33,707.38 238.53,707.13 238.86,707.13 C 238.98,707.13 239.1,707.16 239.21,707.25 C 239.23,707.27 239.24,707.28 239.25,707.28 C 239.26,707.28 239.27,707.27 239.27,707.14 C 239.27,706.4 238.93,705.8 238.6,705.47 C 238.49,705.36 238.49,705.34 238.49,705.31 C 238.49,705.24 238.54,705.2 238.59,705.2 C 238.7,705.2 239.49,705.97 239.49,707.14 z"
   style="fill:#000000;stroke-width:0" />
<path
   id="path3348"
   d="M 246.75,710.92 L 246.75,710.92 L 246.75,710.93 L 246.75,710.94 L 246.75,710.94 L 246.76,710.95 L 246.76,710.96 L 246.76,710.97 L 246.76,710.98 L 246.77,710.99 L 246.77,711 L 246.77,711.01 L 246.77,711.02 L 246.77,711.03 L 246.78,711.03 L 246.78,711.04 L 246.78,711.05 L 246.78,711.05 L 246.78,711.06 L 246.78,711.06 L 246.78,711.07 L 246.78,711.08 L 246.78,711.09 L 246.79,711.1 L 246.79,711.11 L 246.79,711.12 L 246.79,711.13 L 246.79,711.13 L 246.79,711.14 L 246.79,711.15 C 246.79,711.33 246.65,711.41 246.5,711.41 C 246.4,711.41 246.24,711.35 246.15,711.21 C 246.13,711.16 246.05,710.85 246.01,710.67 C 245.94,710.41 245.87,710.14 245.81,709.87 L 245.36,708.08 C 245.32,707.93 244.89,707.23 244.23,707.23 C 243.73,707.23 243.62,707.67 243.62,708.04 C 243.62,708.5 243.79,709.12 244.12,709.99 C 244.28,710.4 244.32,710.51 244.32,710.71 C 244.32,711.16 244.01,711.52 243.51,711.52 C 242.56,711.52 242.19,710.08 242.19,709.99 C 242.19,709.89 242.29,709.89 242.31,709.89 C 242.41,709.89 242.42,709.91 242.47,710.07 C 242.74,711.01 243.14,711.3 243.48,711.3 C 243.56,711.3 243.73,711.3 243.73,710.99 C 243.73,710.74 243.63,710.48 243.56,710.29 C 243.16,709.23 242.98,708.67 242.98,708.2 C 242.98,707.31 243.61,707.02 244.19,707.02 C 244.58,707.02 244.92,707.18 245.2,707.46 C 245.07,706.95 244.95,706.46 244.55,705.93 C 244.29,705.59 243.91,705.3 243.46,705.3 C 243.32,705.3 242.87,705.33 242.7,705.72 C 242.86,705.72 242.99,705.72 243.13,705.84 C 243.23,705.93 243.33,706.06 243.33,706.25 C 243.33,706.56 243.06,706.6 242.96,706.6 C 242.73,706.6 242.4,706.44 242.4,705.95 C 242.4,705.45 242.84,705.09 243.46,705.09 C 244.48,705.09 245.51,705.99 245.79,707.11 L 246.75,710.92 z"
   style="fill:#000000;stroke-width:0" />
<path
   id="path3350"
   d="M 248.68,707.95 L 248.73,707.95 L 248.78,707.95 L 248.83,707.94 L 248.88,707.94 L 248.93,707.93 L 248.97,707.91 L 249.02,707.9 L 249.06,707.88 L 249.1,707.86 L 249.14,707.84 L 249.18,707.82 L 249.22,707.8 L 249.25,707.77 L 249.29,707.74 L 249.32,707.71 L 249.35,707.67 L 249.38,707.64 L 249.41,707.6 L 249.44,707.56 L 249.46,707.52 L 249.49,707.47 L 249.51,707.42 L 249.53,707.37 L 249.55,707.32 L 249.56,707.27 L 249.58,707.21 L 249.59,707.16 L 249.6,707.1 L 249.61,707.03 L 249.61,706.97 L 249.62,706.9 L 249.62,706.83 C 249.62,705.97 249.12,705.71 248.71,705.71 C 248.43,705.71 247.82,705.79 247.53,706.2 C 247.85,706.22 247.93,706.44 247.93,706.59 C 247.93,706.81 247.76,706.97 247.55,706.97 C 247.35,706.97 247.16,706.85 247.16,706.57 C 247.16,705.92 247.88,705.49 248.73,705.49 C 249.69,705.49 250.36,706.14 250.36,706.83 C 250.36,707.38 249.92,707.92 249.15,708.08 C 249.88,708.34 250.15,708.86 250.15,709.29 C 250.15,709.84 249.51,710.25 248.74,710.25 C 247.97,710.25 247.37,709.87 247.37,709.32 C 247.37,709.08 247.53,708.95 247.74,708.95 C 247.95,708.95 248.09,709.11 248.09,709.3 C 248.09,709.5 247.95,709.65 247.74,709.66 C 247.98,709.97 248.46,710.05 248.72,710.05 C 249.03,710.05 249.47,709.89 249.47,709.29 C 249.47,709 249.37,708.68 249.19,708.46 C 248.96,708.2 248.77,708.18 248.42,708.16 C 248.24,708.15 248.23,708.15 248.2,708.14 C 248.18,708.14 248.13,708.13 248.13,708.05 C 248.13,707.95 248.19,707.95 248.31,707.95 L 248.68,707.95 z"
   style="fill:#000000;stroke-width:0" />
<path
   id="path3352"
   d="M 254.13,709.61 L 254.13,709.69 L 254.13,709.76 L 254.13,709.84 L 254.13,709.92 L 254.12,710.09 L 254.11,710.27 L 254.09,710.45 L 254.07,710.64 L 254.04,710.84 L 254.01,711.03 L 253.97,711.24 L 253.92,711.45 L 253.87,711.66 L 253.81,711.87 L 253.74,712.08 L 253.66,712.29 L 253.62,712.4 L 253.57,712.51 L 253.52,712.61 L 253.47,712.72 C 252.88,713.94 252.02,714.59 251.92,714.59 C 251.86,714.59 251.82,714.55 251.82,714.49 C 251.82,714.46 251.82,714.44 252.01,714.26 C 252.99,713.28 253.55,711.69 253.55,709.61 C 253.55,707.91 253.18,706.16 251.95,704.91 C 251.82,704.79 251.82,704.77 251.82,704.74 C 251.82,704.68 251.86,704.64 251.92,704.64 C 252.02,704.64 252.92,705.31 253.5,706.58 C 254.01,707.67 254.13,708.78 254.13,709.61 z"
   style="fill:#000000;stroke-width:0" />
</g>    <text
       xml:space="preserve"
       style="font-size:20px;font-style:normal;font-variant:normal;font-weight:normal;font-stretch:normal;text-align:start;line-height:125%;letter-spacing:0px;word-spacing:0px;writing-mode:lr-tb;text-anchor:start;fill:#000000;fill-opacity:1;stroke:none;stroke-width:1px;stroke-linecap:butt;stroke-linejoin:miter;stroke-opacity:1;font-family:Times New Roman;-inkscape-font-specification:Times New Roman"
       x="131.5"
       y="142.5"
       id="text3384"
       sodipodi:linespacing="125%"><tspan
         sodipodi:role="line"
         id="tspan3386"
         x="131.5"
         y="142.5">Top</tspan></text>
    <text
       sodipodi:linespacing="125%"
       id="text3388"
       y="196.5"
       x="146"
       style="font-size:20px;font-style:normal;font-variant:normal;font-weight:normal;font-stretch:normal;text-align:start;line-height:125%;letter-spacing:0px;word-spacing:0px;writing-mode:lr-tb;text-anchor:start;fill:#000000;fill-opacity:1;stroke:none;stroke-width:1px;stroke-linecap:butt;stroke-linejoin:miter;stroke-opacity:1;font-family:Times New Roman;-inkscape-font-specification:Times New Roman"
       xml:space="preserve"><tspan
         sodipodi:role="line"
         id="tspan3392"
         x="146"
         y="196.5">Bottom</tspan></text>
  </g>
</svg>
