<?xml version="1.0" encoding="UTF-8" standalone="no"?>
<!-- Created with Inkscape (http://www.inkscape.org/) -->

<svg
   xmlns:ns0="http://www.iki.fi/pav/software/textext/"
   xmlns:dc="http://purl.org/dc/elements/1.1/"
   xmlns:cc="http://creativecommons.org/ns#"
   xmlns:rdf="http://www.w3.org/1999/02/22-rdf-syntax-ns#"
   xmlns:svg="http://www.w3.org/2000/svg"
   xmlns="http://www.w3.org/2000/svg"
   xmlns:sodipodi="http://sodipodi.sourceforge.net/DTD/sodipodi-0.dtd"
   xmlns:inkscape="http://www.inkscape.org/namespaces/inkscape"
   width="212.35817"
   height="161.75"
   id="svg2"
   version="1.1"
   inkscape:version="0.48.2 r9819"
   sodipodi:docname="fig1.svg"
   inkscape:export-filename="C:\Users\Konstantin\Desktop\Current\Teaching\2013.09 - Computer Graphics\repo\Practices\11-Raytracing\text\fig1.png"
   inkscape:export-xdpi="180"
   inkscape:export-ydpi="180">
  <sodipodi:namedview
     id="base"
     pagecolor="#ffffff"
     bordercolor="#666666"
     borderopacity="1.0"
     inkscape:pageopacity="0.0"
     inkscape:pageshadow="2"
     inkscape:zoom="1.032"
     inkscape:cx="185.21673"
     inkscape:cy="56.748053"
     inkscape:document-units="px"
     inkscape:current-layer="layer1"
     showgrid="false"
     inkscape:window-width="1366"
     inkscape:window-height="705"
     inkscape:window-x="-8"
     inkscape:window-y="-8"
     inkscape:window-maximized="1"
     fit-margin-top="0"
     fit-margin-left="0"
     fit-margin-right="0"
     fit-margin-bottom="0" />
  <defs
     id="defs4">
    <marker
       style="overflow:visible"
       id="Arrow1Lend"
       refX="0"
       refY="0"
       orient="auto"
       inkscape:stockid="Arrow1Lend">
      <path
         transform="matrix(-0.8,0,0,-0.8,-10,0)"
         style="fill-rule:evenodd;stroke:#000000;stroke-width:1pt;marker-start:none"
         d="M 0,0 5,-5 -12.5,0 5,5 0,0 z"
         id="path3949"
         inkscape:connector-curvature="0" />
    </marker>
  </defs>
  <metadata
     id="metadata7">
    <rdf:RDF>
      <cc:Work
         rdf:about="">
        <dc:format>image/svg+xml</dc:format>
        <dc:type
           rdf:resource="http://purl.org/dc/dcmitype/StillImage" />
        <dc:title />
      </cc:Work>
    </rdf:RDF>
  </metadata>
  <g
     transform="translate(-11.485581,-881.46875)"
     id="layer1"
     inkscape:groupmode="layer"
     inkscape:label="Layer 1">
    <path
       inkscape:connector-curvature="0"
       id="path2985"
       d="m 131.29845,882.30404 0,87.6938 92.05426,72.18986 0,-109.49607 z"
       style="fill:none;stroke:#000000;stroke-width:1px;stroke-linecap:butt;stroke-linejoin:miter;stroke-opacity:1"
       sodipodi:nodetypes="ccccc" />
    <path
       inkscape:connector-curvature="0"
       id="path2989"
       d="m 176.35658,956.43194 -151.162784,0"
       style="fill:none;stroke:#000000;stroke-width:1;stroke-linecap:butt;stroke-linejoin:miter;stroke-miterlimit:4;stroke-opacity:1;stroke-dasharray:1, 1;stroke-dashoffset:0" />
    <path
       transform="translate(-118.21706,748.09861)"
       d="m 274.22482,172.48062 c 0,1.60548 -0.43383,2.90698 -0.96899,2.90698 -0.53516,0 -0.96899,-1.3015 -0.96899,-2.90698 0,-1.60548 0.43383,-2.90698 0.96899,-2.90698 0.53516,0 0.96899,1.3015 0.96899,2.90698 z"
       sodipodi:ry="2.9069767"
       sodipodi:rx="0.96899223"
       sodipodi:cy="172.48062"
       sodipodi:cx="273.25583"
       id="path2991"
       style="fill:#c5c5c5;fill-opacity:1;stroke:#ff0000;stroke-width:3;stroke-miterlimit:4;stroke-opacity:1;stroke-dasharray:none;stroke-dashoffset:0"
       sodipodi:type="arc" />
    <path
       inkscape:connector-curvature="0"
       id="path2993"
       d="M 24.709306,955.46295 150.67829,922.03272"
       style="fill:none;stroke:#000000;stroke-width:1px;stroke-linecap:butt;stroke-linejoin:miter;stroke-opacity:1;marker-mid:none;marker-end:url(#Arrow1Lend)" />
    <path
       transform="translate(-119.67054,748.58311)"
       d="m 146.31784,207.12209 c 0,1.47168 -1.19304,2.66472 -2.66473,2.66472 -1.47169,0 -2.66473,-1.19304 -2.66473,-2.66472 0,-1.47169 1.19304,-2.66473 2.66473,-2.66473 1.47169,0 2.66473,1.19304 2.66473,2.66473 z"
       sodipodi:ry="2.6647286"
       sodipodi:rx="2.6647286"
       sodipodi:cy="207.12209"
       sodipodi:cx="143.65311"
       id="path4387"
       style="fill:#000000;fill-opacity:1;stroke:#000000;stroke-width:3;stroke-miterlimit:4;stroke-opacity:1;stroke-dasharray:none;stroke-dashoffset:0"
       sodipodi:type="arc" />
    <g
       style="font-style:normal;font-variant:normal;font-weight:normal;font-stretch:normal;letter-spacing:normal;word-spacing:normal;text-anchor:start;fill:none;stroke:#000000;stroke-linecap:butt;stroke-linejoin:miter;stroke-miterlimit:10.43299961;stroke-opacity:1;stroke-dasharray:none;stroke-dashoffset:0"
       ns0:preamble=""
       ns0:text="$O$"
       word-spacing="normal"
       letter-spacing="normal"
       font-size-adjust="none"
       font-stretch="normal"
       font-weight="normal"
       font-variant="normal"
       font-style="normal"
       stroke-miterlimit="10.433"
       xml:space="preserve"
       transform="matrix(1.9727393,0,0,-1.9727393,-427.25445,2341.7646)"
       id="content">
<path
   style="fill:#000000;stroke-width:0"
   inkscape:connector-curvature="0"
   id="path4402"
   d="m 230.81,711.46 0,0.15 -0.01,0.15 -0.02,0.14 -0.02,0.14 -0.03,0.13 -0.03,0.14 -0.04,0.12 -0.04,0.13 -0.05,0.12 -0.05,0.12 -0.06,0.11 -0.06,0.11 -0.07,0.1 -0.08,0.1 -0.07,0.09 -0.09,0.09 -0.08,0.09 -0.09,0.08 -0.1,0.08 -0.1,0.07 -0.1,0.06 -0.11,0.06 -0.11,0.06 -0.11,0.05 -0.12,0.04 -0.12,0.04 -0.12,0.03 -0.13,0.03 -0.13,0.02 -0.13,0.02 -0.14,0.01 -0.13,0 -0.06,-0.25 c 0.81,0 1.71,-0.55 1.71,-2.04 0,-0.71 -0.27,-2.27 -1.26,-3.49 -0.47,-0.61 -1.29,-1.2 -2.13,-1.2 h 0 c -0.99,0 -1.68,0.81 -1.68,2.12 0,0.44 0.14,1.9 0.91,3.06 0.68,1.04 1.66,1.55 2.45,1.55 l 0.06,0.25 c -2.16,0 -4.35,-2.26 -4.35,-4.58 0,-1.65 1.12,-2.65 2.55,-2.65 2.12,0 4.34,2.18 4.34,4.55 z" />
</g>    <g
       id="g4451"
       transform="matrix(2.1728449,0,0,-2.1728449,-391.33917,2511.1863)"
       xml:space="preserve"
       stroke-miterlimit="10.433"
       font-style="normal"
       font-variant="normal"
       font-weight="normal"
       font-stretch="normal"
       font-size-adjust="none"
       letter-spacing="normal"
       word-spacing="normal"
       ns0:text="$d$"
       ns0:preamble=""
       style="font-style:normal;font-variant:normal;font-weight:normal;font-stretch:normal;letter-spacing:normal;word-spacing:normal;text-anchor:start;fill:none;stroke:#000000;stroke-linecap:butt;stroke-linejoin:miter;stroke-miterlimit:10.43299961;stroke-opacity:1;stroke-dasharray:none;stroke-dashoffset:0">
<path
   d="m 228.58,713.92 0,0 0,0 0,0.01 0,0 0,0 0,0 0,0.01 -0.01,0 0,0 0,0.01 0,0 0,0.01 0,0 0,0.01 0,0 -0.01,0.01 0,0 0,0.01 -0.01,0 0,0.01 -0.01,0 0,0 0,0 0,0.01 -0.01,0 0,0 0,0 -0.01,0 0,0.01 0,0 -0.01,0 0,0 0,0 -0.01,0 0,0.01 -0.01,0 0,0 -0.01,0 0,0 -0.01,0 0,0 -0.01,0 0,0 -0.01,0 0,0 c -0.15,0 -1.1,-0.09 -1.27,-0.11 -0.08,-0.01 -0.14,-0.06 -0.14,-0.19 0,-0.12 0.09,-0.12 0.24,-0.12 0.48,0 0.5,-0.07 0.5,-0.16 l -0.03,-0.2 -0.6,-2.36 c -0.18,0.37 -0.47,0.63 -0.92,0.63 -1.16,0 -2.4,-1.46 -2.4,-2.91 0,-0.94 0.55,-1.59 1.33,-1.59 l 0.02,0.21 c -0.5,0 -0.64,0.55 -0.64,0.94 0,0.5 0.32,1.72 0.55,2.18 0.31,0.59 0.75,0.95 1.15,0.95 0.65,0 0.79,-0.81 0.79,-0.87 0,-0.06 -0.02,-0.12 -0.03,-0.17 l -0.5,-1.95 c -0.05,-0.18 -0.05,-0.2 -0.2,-0.37 -0.44,-0.55 -0.84,-0.71 -1.12,-0.71 l -0.02,-0.21 c 0.2,0 0.69,0.03 1.29,0.74 0.08,-0.42 0.43,-0.74 0.91,-0.74 0.35,0 0.58,0.22 0.74,0.54 0.17,0.36 0.3,0.97 0.3,0.99 0,0.1 -0.09,0.1 -0.12,0.1 -0.1,0 -0.11,-0.04 -0.14,-0.18 -0.17,-0.65 -0.35,-1.24 -0.76,-1.24 -0.27,0 -0.3,0.26 -0.3,0.46 0,0.24 0.02,0.31 0.06,0.48 z"
   id="path4453"
   inkscape:connector-curvature="0"
   style="fill:#000000;stroke-width:0" />
</g>    <g
       style="font-style:normal;font-variant:normal;font-weight:normal;font-stretch:normal;letter-spacing:normal;word-spacing:normal;text-anchor:start;fill:none;stroke:#000000;stroke-linecap:butt;stroke-linejoin:miter;stroke-miterlimit:10.43299961;stroke-opacity:1;stroke-dasharray:none;stroke-dashoffset:0"
       ns0:preamble=""
       ns0:text="$(x,y)$"
       word-spacing="normal"
       letter-spacing="normal"
       font-size-adjust="none"
       font-stretch="normal"
       font-weight="normal"
       font-variant="normal"
       font-style="normal"
       stroke-miterlimit="10.433"
       xml:space="preserve"
       transform="matrix(1,0.54054618,0,-1,-78.49275,1490.0926)"
       id="g4506">
<path
   style="fill:#000000;stroke-width:0"
   inkscape:connector-curvature="0"
   id="path4508"
   d="m 226.73,704.74 0,0 0,0.01 0,0 0,0 0,0.01 0,0 0,0 0,0.01 0,0 -0.01,0 0,0.01 0,0 -0.01,0.01 0,0 0,0.01 -0.01,0.01 0,0 -0.01,0.01 0,0 -0.01,0.01 0,0 0,0.01 -0.01,0 0,0 -0.01,0.01 0,0 0,0.01 -0.01,0 0,0.01 -0.01,0 0,0.01 -0.01,0.01 -0.01,0 0,0.01 -0.01,0 0,0.01 -0.01,0.01 -0.01,0.01 -0.01,0 0,0.01 -0.01,0.01 -0.01,0.01 c -1.24,1.25 -1.56,3.13 -1.56,4.65 0,1.73 0.38,3.47 1.6,4.71 0.13,0.12 0.13,0.14 0.13,0.17 0,0.07 -0.04,0.1 -0.1,0.1 -0.1,0 -1,-0.68 -1.58,-1.94 -0.51,-1.1 -0.63,-2.2 -0.63,-3.04 0,-0.77 0.11,-1.98 0.66,-3.1 0.6,-1.23 1.45,-1.87 1.55,-1.87 0.06,0 0.1,0.03 0.1,0.1 z" />
<path
   style="fill:#000000;stroke-width:0"
   inkscape:connector-curvature="0"
   id="path4510"
   d="m 230.63,710.13 0.01,0.03 0.01,0.03 0.01,0.03 0.01,0.04 0.01,0.03 0.01,0.05 0.01,0.04 0.02,0.04 0.01,0.05 0.02,0.05 0.02,0.05 0.02,0.05 0.02,0.05 0.03,0.05 0.02,0.05 0.03,0.04 0.03,0.05 0.03,0.05 0.03,0.05 0.04,0.04 0.04,0.04 0.04,0.04 0.04,0.04 0.04,0.04 0.05,0.03 0.05,0.03 0.02,0.01 0.03,0.01 0.02,0.02 0.03,0.01 0.03,0 0.03,0.01 0.03,0.01 0.03,0 0.03,0.01 0.03,0 0.03,0 0.03,0 c 0.05,0 0.29,0 0.5,-0.12 -0.28,-0.05 -0.48,-0.3 -0.48,-0.54 0,-0.16 0.11,-0.35 0.38,-0.35 0.22,0 0.54,0.18 0.54,0.58 0,0.52 -0.59,0.65 -0.93,0.65 -0.58,0 -0.92,-0.52 -1.04,-0.75 -0.25,0.65 -0.79,0.75 -1.08,0.75 -1.04,0 -1.61,-1.28 -1.61,-1.53 0,-0.1 0.1,-0.1 0.12,-0.1 0.08,0 0.11,0.02 0.13,0.11 0.34,1.06 1,1.3 1.34,1.3 0.19,0 0.54,-0.08 0.54,-0.66 0,-0.31 -0.17,-0.98 -0.54,-2.37 -0.16,-0.62 -0.51,-1.04 -0.95,-1.04 -0.06,0 -0.29,0 -0.5,0.13 0.25,0.05 0.47,0.26 0.47,0.54 0,0.27 -0.22,0.35 -0.37,0.35 -0.3,0 -0.54,-0.26 -0.54,-0.58 0,-0.45 0.49,-0.65 0.93,-0.65 0.66,0 1.02,0.69 1.05,0.75 0.12,-0.37 0.48,-0.75 1.07,-0.75 1.03,0 1.6,1.28 1.6,1.53 0,0.1 -0.09,0.1 -0.12,0.1 -0.09,0 -0.11,-0.04 -0.13,-0.11 -0.33,-1.07 -1.01,-1.31 -1.32,-1.31 -0.39,0 -0.55,0.32 -0.55,0.66 0,0.22 0.06,0.44 0.17,0.88 z" />
<path
   style="fill:#000000;stroke-width:0"
   inkscape:connector-curvature="0"
   id="path4512"
   d="m 235.02,707.14 0,0.06 0,0.06 0,0.05 -0.01,0.06 0,0.05 -0.01,0.06 -0.01,0.05 -0.01,0.05 -0.01,0.04 -0.02,0.05 -0.01,0.04 -0.02,0.04 -0.01,0.04 -0.02,0.04 -0.02,0.04 -0.02,0.03 -0.02,0.04 -0.02,0.03 -0.03,0.03 -0.02,0.02 -0.03,0.03 -0.02,0.02 -0.03,0.02 -0.03,0.02 -0.03,0.02 -0.03,0.01 -0.03,0.01 -0.04,0.01 -0.03,0.01 -0.03,0.01 -0.04,0 -0.04,0 c -0.32,0 -0.52,-0.25 -0.52,-0.53 0,-0.27 0.2,-0.52 0.52,-0.52 0.13,0 0.25,0.03 0.35,0.12 0.03,0.02 0.04,0.03 0.05,0.03 0.01,0 0.02,-0.01 0.02,-0.14 0,-0.74 -0.34,-1.34 -0.67,-1.67 -0.11,-0.11 -0.11,-0.13 -0.11,-0.16 0,-0.07 0.05,-0.11 0.1,-0.11 0.11,0 0.9,0.77 0.9,1.94 z" />
<path
   style="fill:#000000;stroke-width:0"
   inkscape:connector-curvature="0"
   id="path4514"
   d="m 242.28,710.92 0,0 0,0.01 0,0.01 0,0 0.01,0.01 0,0.01 0,0.01 0,0.01 0.01,0.01 0,0.01 0,0.01 0,0.01 0,0.01 0.01,0 0,0.01 0,0.01 0,0 0,0.01 0,0 0,0.01 0,0.01 0,0.01 0,0.01 0,0.01 0,0.01 0,0.01 0,0 0.01,0.01 0,0.01 c 0,0.18 -0.14,0.26 -0.29,0.26 -0.1,0 -0.26,-0.06 -0.35,-0.2 -0.02,-0.05 -0.1,-0.36 -0.14,-0.54 -0.07,-0.26 -0.14,-0.53 -0.2,-0.8 l -0.45,-1.79 c -0.04,-0.15 -0.47,-0.85 -1.13,-0.85 -0.5,0 -0.61,0.44 -0.61,0.81 0,0.46 0.17,1.08 0.5,1.95 0.16,0.41 0.2,0.52 0.2,0.72 0,0.45 -0.32,0.81 -0.81,0.81 -0.95,0 -1.32,-1.44 -1.32,-1.53 0,-0.1 0.1,-0.1 0.12,-0.1 0.1,0 0.11,0.02 0.16,0.18 0.27,0.94 0.67,1.23 1.01,1.23 0.08,0 0.25,0 0.25,-0.31 0,-0.25 -0.11,-0.51 -0.17,-0.7 -0.4,-1.06 -0.58,-1.62 -0.58,-2.09 0,-0.89 0.63,-1.18 1.21,-1.18 0.39,0 0.73,0.16 1.01,0.44 -0.13,-0.51 -0.25,-1 -0.65,-1.53 -0.26,-0.34 -0.63,-0.63 -1.09,-0.63 -0.14,0 -0.59,0.03 -0.76,0.42 0.16,0 0.29,0 0.43,0.12 0.1,0.09 0.2,0.22 0.2,0.41 0,0.31 -0.27,0.35 -0.37,0.35 -0.23,0 -0.56,-0.16 -0.56,-0.65 0,-0.5 0.44,-0.86 1.06,-0.86 1.02,0 2.05,0.9 2.33,2.02 z" />
<path
   style="fill:#000000;stroke-width:0"
   inkscape:connector-curvature="0"
   id="path4516"
   d="m 245.55,709.61 0,0.08 0,0.07 0,0.08 0,0.08 -0.01,0.17 -0.01,0.18 -0.02,0.18 -0.02,0.19 -0.03,0.2 -0.03,0.19 -0.04,0.21 -0.05,0.21 -0.05,0.21 -0.06,0.21 -0.07,0.21 -0.08,0.21 -0.04,0.11 -0.05,0.11 -0.05,0.1 -0.05,0.11 c -0.6,1.22 -1.45,1.87 -1.55,1.87 -0.06,0 -0.1,-0.04 -0.1,-0.1 0,-0.03 0,-0.05 0.19,-0.23 0.97,-0.98 1.54,-2.57 1.54,-4.65 0,-1.7 -0.37,-3.45 -1.6,-4.7 -0.13,-0.12 -0.13,-0.14 -0.13,-0.17 0,-0.06 0.04,-0.1 0.1,-0.1 0.1,0 1,0.67 1.58,1.94 0.51,1.09 0.63,2.2 0.63,3.03 z" />
</g>    <path
       sodipodi:type="arc"
       style="fill:#000000;fill-opacity:1;stroke:#000000;stroke-width:3;stroke-miterlimit:4;stroke-opacity:1;stroke-dasharray:none;stroke-dashoffset:0"
       id="path4571"
       sodipodi:cx="273.25583"
       sodipodi:cy="172.48062"
       sodipodi:rx="0.96899223"
       sodipodi:ry="2.9069767"
       d="m 274.22482,172.48062 c 0,1.60548 -0.43383,2.90698 -0.96899,2.90698 -0.53516,0 -0.96899,-1.3015 -0.96899,-2.90698 0,-1.60548 0.43383,-2.90698 0.96899,-2.90698 0.53516,0 0.96899,1.3015 0.96899,2.90698 z"
       transform="translate(-97.868223,783.95132)" />
    <g
       style="font-style:normal;font-variant:normal;font-weight:normal;font-stretch:normal;letter-spacing:normal;word-spacing:normal;text-anchor:start;fill:none;stroke:#000000;stroke-linecap:butt;stroke-linejoin:miter;stroke-miterlimit:10.43299961;stroke-opacity:1;stroke-dasharray:none;stroke-dashoffset:0"
       ns0:preamble=""
       ns0:text="$(0,0)$"
       word-spacing="normal"
       letter-spacing="normal"
       font-size-adjust="none"
       font-stretch="normal"
       font-weight="normal"
       font-variant="normal"
       font-style="normal"
       stroke-miterlimit="10.433"
       xml:space="preserve"
       transform="matrix(1,0.54054618,0,-1,-56.205928,1528.8523)"
       id="g4674">
<path
   id="path4676"
   d="m 226.73,704.74 0,0 0,0.01 0,0 0,0 0,0.01 0,0 0,0 0,0.01 0,0 -0.01,0 0,0.01 0,0 -0.01,0.01 0,0 0,0.01 -0.01,0.01 0,0 -0.01,0.01 0,0 -0.01,0.01 0,0 0,0.01 -0.01,0 0,0 -0.01,0.01 0,0 0,0.01 -0.01,0 0,0.01 -0.01,0 0,0.01 -0.01,0.01 -0.01,0 0,0.01 -0.01,0 0,0.01 -0.01,0.01 -0.01,0.01 -0.01,0 0,0.01 -0.01,0.01 -0.01,0.01 c -1.24,1.25 -1.56,3.13 -1.56,4.65 0,1.73 0.38,3.47 1.6,4.71 0.13,0.12 0.13,0.14 0.13,0.17 0,0.07 -0.04,0.1 -0.1,0.1 -0.1,0 -1,-0.68 -1.58,-1.94 -0.51,-1.1 -0.63,-2.2 -0.63,-3.04 0,-0.77 0.11,-1.98 0.66,-3.1 0.6,-1.23 1.45,-1.87 1.55,-1.87 0.06,0 0.1,0.03 0.1,0.1 z"
   inkscape:connector-curvature="0"
   style="fill:#000000;stroke-width:0" />
<path
   id="path4678"
   d="m 231.89,710.31 0,0.15 0,0.15 0,0.15 -0.01,0.15 -0.01,0.14 -0.01,0.15 -0.02,0.15 -0.02,0.15 -0.02,0.14 -0.03,0.15 -0.03,0.14 -0.04,0.15 -0.04,0.14 -0.05,0.14 -0.06,0.14 -0.03,0.07 -0.03,0.07 c -0.45,0.95 -1.27,1.11 -1.69,1.11 -0.6,0 -1.33,-0.26 -1.74,-1.18 -0.32,-0.69 -0.36,-1.46 -0.36,-2.26 0,-0.75 0.04,-1.64 0.44,-2.4 0.43,-0.81 1.16,-1 1.65,-1 v 0.22 c -0.39,0 -0.98,0.24 -1.16,1.2 -0.11,0.6 -0.11,1.51 -0.11,2.1 0,0.64 0,1.29 0.08,1.83 0.19,1.19 0.94,1.27 1.19,1.27 0.33,0 0.98,-0.18 1.17,-1.16 0.11,-0.56 0.11,-1.31 0.11,-1.94 0,-0.75 0,-1.42 -0.11,-2.06 -0.16,-0.95 -0.72,-1.24 -1.17,-1.24 h 0 v -0.22 c 0.54,0 1.29,0.2 1.73,1.15 0.32,0.69 0.37,1.46 0.37,2.25 z"
   inkscape:connector-curvature="0"
   style="fill:#000000;stroke-width:0" />
<path
   id="path4680"
   d="m 234.31,707.14 0,0.06 0,0.06 0,0.05 -0.01,0.06 -0.01,0.05 0,0.06 -0.01,0.05 -0.01,0.05 -0.01,0.04 -0.02,0.05 -0.01,0.04 -0.02,0.04 -0.01,0.04 -0.02,0.04 -0.02,0.04 -0.02,0.03 -0.02,0.04 -0.03,0.03 -0.02,0.03 -0.02,0.02 -0.03,0.03 -0.03,0.02 -0.02,0.02 -0.03,0.02 -0.03,0.02 -0.03,0.01 -0.03,0.01 -0.04,0.01 -0.03,0.01 -0.03,0.01 -0.04,0 -0.04,0 c -0.32,0 -0.52,-0.25 -0.52,-0.53 0,-0.27 0.2,-0.52 0.52,-0.52 0.12,0 0.25,0.03 0.35,0.12 0.03,0.02 0.04,0.03 0.05,0.03 0.01,0 0.02,-0.01 0.02,-0.14 0,-0.74 -0.35,-1.34 -0.68,-1.67 -0.11,-0.11 -0.11,-0.13 -0.11,-0.16 0,-0.07 0.05,-0.11 0.1,-0.11 0.11,0 0.91,0.77 0.91,1.94 z"
   inkscape:connector-curvature="0"
   style="fill:#000000;stroke-width:0" />
<path
   id="path4682"
   d="m 241.3,710.31 0,0.15 0,0.15 -0.01,0.15 0,0.15 -0.01,0.14 -0.01,0.15 -0.02,0.15 -0.02,0.15 -0.02,0.14 -0.03,0.15 -0.03,0.14 -0.04,0.15 -0.04,0.14 -0.05,0.14 -0.06,0.14 -0.03,0.07 -0.03,0.07 c -0.46,0.95 -1.27,1.11 -1.69,1.11 -0.6,0 -1.33,-0.26 -1.74,-1.18 -0.32,-0.69 -0.37,-1.46 -0.37,-2.26 0,-0.75 0.05,-1.64 0.45,-2.4 0.43,-0.81 1.16,-1 1.65,-1 v 0.22 c -0.39,0 -0.98,0.24 -1.16,1.2 -0.11,0.6 -0.11,1.51 -0.11,2.1 0,0.64 0,1.29 0.08,1.83 0.19,1.19 0.94,1.27 1.19,1.27 0.33,0 0.98,-0.18 1.17,-1.16 0.1,-0.56 0.1,-1.31 0.1,-1.94 0,-0.75 0,-1.42 -0.11,-2.06 -0.15,-0.95 -0.71,-1.24 -1.16,-1.24 h 0 v -0.22 c 0.54,0 1.29,0.2 1.73,1.15 0.32,0.69 0.37,1.46 0.37,2.25 z"
   inkscape:connector-curvature="0"
   style="fill:#000000;stroke-width:0" />
<path
   id="path4684"
   d="m 244.58,709.61 0,0.08 0,0.07 -0.01,0.08 0,0.08 -0.01,0.17 -0.01,0.18 -0.01,0.18 -0.03,0.19 -0.02,0.2 -0.04,0.19 -0.03,0.21 -0.05,0.21 -0.05,0.21 -0.07,0.21 -0.07,0.21 -0.07,0.21 -0.05,0.11 -0.04,0.11 -0.05,0.1 -0.05,0.11 c -0.6,1.22 -1.46,1.87 -1.55,1.87 -0.07,0 -0.1,-0.04 -0.1,-0.1 0,-0.03 0,-0.05 0.19,-0.23 0.97,-0.98 1.54,-2.57 1.54,-4.65 0,-1.7 -0.37,-3.45 -1.6,-4.7 -0.13,-0.12 -0.13,-0.14 -0.13,-0.17 0,-0.06 0.03,-0.1 0.1,-0.1 0.09,0 0.99,0.67 1.58,1.94 0.51,1.09 0.63,2.2 0.63,3.03 z"
   inkscape:connector-curvature="0"
   style="fill:#000000;stroke-width:0" />
</g>    <g
       id="g4754"
       transform="matrix(0.99738586,0.89846144,0,-1.6529893,-70.15594,1968.9337)"
       xml:space="preserve"
       stroke-miterlimit="10.433"
       font-style="normal"
       font-variant="normal"
       font-weight="normal"
       font-stretch="normal"
       font-size-adjust="none"
       letter-spacing="normal"
       word-spacing="normal"
       ns0:text="$y=-1$"
       ns0:preamble=""
       style="font-style:normal;font-variant:normal;font-weight:normal;font-stretch:normal;letter-spacing:normal;word-spacing:normal;text-anchor:start;fill:none;stroke:#000000;stroke-linecap:butt;stroke-linejoin:miter;stroke-miterlimit:10.43299961;stroke-opacity:1;stroke-dasharray:none;stroke-dashoffset:0">
<path
   style="fill:#000000;stroke-width:0"
   inkscape:connector-curvature="0"
   d="m 228.28,710.92 0,0 0,0.01 0,0.01 0,0 0.01,0.01 0,0.01 0,0.01 0.01,0.01 0,0.01 0,0.01 0,0.01 0,0.01 0,0.01 0.01,0 0,0.01 0,0.01 0,0 0,0.01 0,0 0,0.01 0,0.01 0,0.01 0.01,0.01 0,0.01 0,0.01 0,0.01 0,0 0,0.01 0,0.01 c 0,0.18 -0.14,0.26 -0.29,0.26 -0.1,0 -0.26,-0.06 -0.35,-0.2 -0.02,-0.05 -0.1,-0.36 -0.14,-0.54 -0.07,-0.26 -0.14,-0.53 -0.2,-0.8 l -0.45,-1.79 c -0.04,-0.15 -0.47,-0.85 -1.13,-0.85 -0.5,0 -0.61,0.44 -0.61,0.81 0,0.46 0.17,1.08 0.5,1.95 0.16,0.41 0.2,0.52 0.2,0.72 0,0.45 -0.31,0.81 -0.81,0.81 -0.95,0 -1.32,-1.44 -1.32,-1.53 0,-0.1 0.1,-0.1 0.12,-0.1 0.1,0 0.11,0.02 0.16,0.18 0.27,0.94 0.67,1.23 1.01,1.23 0.08,0 0.25,0 0.25,-0.31 0,-0.25 -0.1,-0.51 -0.17,-0.7 -0.4,-1.06 -0.58,-1.62 -0.58,-2.09 0,-0.89 0.63,-1.18 1.22,-1.18 0.38,0 0.72,0.16 1,0.44 -0.13,-0.51 -0.25,-1 -0.65,-1.53 -0.26,-0.34 -0.63,-0.63 -1.09,-0.63 -0.14,0 -0.59,0.03 -0.76,0.42 0.16,0 0.29,0 0.43,0.12 0.1,0.09 0.2,0.22 0.2,0.41 0,0.31 -0.27,0.35 -0.37,0.35 -0.23,0 -0.56,-0.16 -0.56,-0.65 0,-0.5 0.44,-0.86 1.06,-0.86 1.02,0 2.05,0.9 2.33,2.02 z"
   id="path4756" />
<path
   style="fill:#000000;stroke-width:0"
   inkscape:connector-curvature="0"
   d="m 238.29,710.38 0.03,0 0.03,0 0.03,0 0.01,0 0.02,0 0.01,0 0.01,0.01 0.02,0 0.01,0 0.02,0 0.01,0.01 0.01,0 0.01,0 0.02,0.01 0.01,0 0.01,0.01 0.01,0.01 0.01,0.01 0.01,0 0.01,0.01 0.01,0.01 0,0.01 0,0 0.01,0.01 0,0.01 0,0 0.01,0.01 0,0.01 0,0 0,0.01 0,0.01 0,0 0.01,0.01 0,0.01 0,0.01 0,0.01 0,0.01 c 0,0.2 -0.19,0.2 -0.33,0.2 h -5.97 c -0.14,0 -0.33,0 -0.33,-0.2 0,-0.2 0.19,-0.2 0.34,-0.2 z"
   id="path4758" />
<path
   style="fill:#000000;stroke-width:0"
   inkscape:connector-curvature="0"
   d="m 238.3,708.45 0.03,0 0.02,0 0.03,0 0.02,0 0.01,0 0.01,0 0.02,0.01 0.01,0 0.01,0 0.02,0 0.01,0.01 0.01,0 0.02,0 0.01,0.01 0.01,0 0.01,0.01 0.01,0.01 0.01,0.01 0.01,0 0.01,0.01 0,0.01 0.01,0 0,0.01 0,0 0.01,0.01 0,0.01 0,0 0.01,0.01 0,0.01 0,0 0,0.01 0,0.01 0,0 0.01,0.01 0,0.01 0,0.01 0,0.01 0,0.01 c 0,0.2 -0.19,0.2 -0.34,0.2 h -5.95 c -0.15,0 -0.34,0 -0.34,-0.2 0,-0.2 0.19,-0.2 0.33,-0.2 z"
   id="path4760" />
<path
   style="fill:#000000;stroke-width:0"
   inkscape:connector-curvature="0"
   d="m 248.53,709.41 0.03,0 0.03,0 0.03,0.01 0.02,0 0.01,0 0.02,0 0.01,0 0.02,0 0.01,0 0.02,0.01 0.01,0 0.01,0 0.01,0.01 0.02,0 0.01,0.01 0.01,0.01 0.01,0 0.01,0.01 0.01,0.01 0.01,0.01 0,0.01 0.01,0 0,0.01 0,0 0.01,0.01 0,0.01 0,0 0,0.01 0.01,0.01 0,0 0,0.01 0,0.01 0,0.01 0,0.01 0,0 0,0.01 0.01,0.01 c 0,0.2 -0.18,0.2 -0.35,0.2 h -5.4 c -0.17,0 -0.35,0 -0.35,-0.2 0,-0.2 0.18,-0.2 0.35,-0.2 z"
   id="path4762" />
<path
   style="fill:#000000;stroke-width:0"
   inkscape:connector-curvature="0"
   d="m 252.64,713.49 0,0.02 0,0.01 0,0.01 0,0.01 0,0.01 0,0.01 0,0.01 0,0 0,0.01 0,0.01 0,0.01 0,0.01 0,0 -0.01,0.01 0,0.01 0,0.01 0,0 0,0.01 0,0.01 0,0.01 -0.01,0.01 0,0.01 0,0.01 -0.01,0.01 0,0 -0.01,0.01 0,0 -0.01,0.01 -0.01,0 -0.01,0.01 0,0 -0.01,0 0,0 -0.01,0 0,0.01 -0.01,0 -0.01,0 0,0 -0.01,0 -0.01,0 0,0 -0.01,0 -0.01,0 -0.01,0 -0.01,0 0,0 -0.01,0 -0.01,0 -0.01,0 -0.01,0 -0.01,0 -0.01,0 c -0.62,-0.63 -1.5,-0.63 -1.82,-0.63 v -0.31 c 0.2,0 0.79,0 1.31,0.26 v -5.16 c 0,-0.36 -0.03,-0.48 -0.93,-0.48 h -0.32 v -0.3 c 0.35,0.03 1.22,0.03 1.62,0.03 0.4,0 1.26,0 1.61,-0.03 v 0.3 h -0.32 c -0.89,0 -0.92,0.11 -0.92,0.48 z"
   id="path4764" />
</g>    <g
       style="font-style:normal;font-variant:normal;font-weight:normal;font-stretch:normal;letter-spacing:normal;word-spacing:normal;text-anchor:start;fill:none;stroke:#000000;stroke-linecap:butt;stroke-linejoin:miter;stroke-miterlimit:10.43299961;stroke-opacity:1;stroke-dasharray:none;stroke-dashoffset:0"
       ns0:preamble=""
       ns0:text="$y=1$"
       text-anchor="start"
       word-spacing="normal"
       letter-spacing="normal"
       font-size-adjust="none"
       font-stretch="normal"
       font-weight="normal"
       font-variant="normal"
       font-style="normal"
       fill-opacity="1"
       fill-rule="evenodd"
       fill="none"
       stroke-opacity="1"
       stroke-dashoffset="0"
       stroke-dasharray="none"
       stroke-miterlimit="10.433"
       stroke-linejoin="miter"
       stroke-linecap="butt"
       stroke="black"
       xml:space="preserve"
       transform="matrix(0.99738586,0.58483796,0,-1.6529893,-55.621056,1930.4548)"
       id="g4846">
<path
   id="path4848"
   fill="black"
   stroke-width="0"
   d="M228.28,710.92 L228.28,710.92 L228.28,710.93 L228.28,710.94 L228.28,710.94 L228.29,710.95 L228.29,710.96 L228.29,710.97 L228.3,710.98 L228.3,710.99 L228.3,711 L228.3,711.01 L228.3,711.02 L228.3,711.03 L228.31,711.03 L228.31,711.04 L228.31,711.05 L228.31,711.05 L228.31,711.06 L228.31,711.06 L228.31,711.07 L228.31,711.08 L228.31,711.09 L228.32,711.1 L228.32,711.11 L228.32,711.12 L228.32,711.13 L228.32,711.13 L228.32,711.14 L228.32,711.15 C228.32,711.33,228.18,711.41,228.03,711.41 C227.93,711.41,227.77,711.35,227.68,711.21 C227.66,711.16,227.58,710.85,227.54,710.67 C227.47,710.41,227.4,710.14,227.34,709.87 L226.89,708.08 C226.85,707.93,226.42,707.23,225.76,707.23 C225.26,707.23,225.15,707.67,225.15,708.04 C225.15,708.5,225.32,709.12,225.65,709.99 C225.81,710.4,225.85,710.51,225.85,710.71 C225.85,711.16,225.54,711.52,225.04,711.52 C224.09,711.52,223.72,710.08,223.72,709.99 C223.72,709.89,223.82,709.89,223.84,709.89 C223.94,709.89,223.95,709.91,224,710.07 C224.27,711.01,224.67,711.3,225.01,711.3 C225.09,711.3,225.26,711.3,225.26,710.99 C225.26,710.74,225.16,710.48,225.09,710.29 C224.69,709.23,224.51,708.67,224.51,708.2 C224.51,707.31,225.14,707.02,225.73,707.02 C226.11,707.02,226.45,707.18,226.73,707.46 C226.6,706.95,226.48,706.46,226.08,705.93 C225.82,705.59,225.45,705.3,224.99,705.3 C224.85,705.3,224.4,705.33,224.23,705.72 C224.39,705.72,224.52,705.72,224.66,705.84 C224.76,705.93,224.86,706.06,224.86,706.25 C224.86,706.56,224.59,706.6,224.49,706.6 C224.26,706.6,223.93,706.44,223.93,705.95 C223.93,705.45,224.37,705.09,224.99,705.09 C226.01,705.09,227.04,705.99,227.32,707.11 Z " />
<path
   id="path4850"
   fill="black"
   stroke-width="0"
   d="M238.29,710.38 L238.32,710.38 L238.35,710.38 L238.38,710.38 L238.39,710.38 L238.41,710.38 L238.42,710.38 L238.43,710.39 L238.45,710.39 L238.46,710.39 L238.48,710.39 L238.49,710.4 L238.5,710.4 L238.51,710.4 L238.53,710.41 L238.54,710.41 L238.55,710.42 L238.56,710.43 L238.57,710.44 L238.58,710.44 L238.59,710.45 L238.6,710.46 L238.6,710.47 L238.6,710.47 L238.61,710.48 L238.61,710.49 L238.61,710.49 L238.62,710.5 L238.62,710.51 L238.62,710.51 L238.62,710.52 L238.62,710.53 L238.62,710.53 L238.63,710.54 L238.63,710.55 L238.63,710.56 L238.63,710.57 L238.63,710.58 C238.63,710.78,238.44,710.78,238.3,710.78 H232.33 C232.19,710.78,232,710.78,232,710.58 C232,710.38,232.19,710.38,232.34,710.38 Z " />
<path
   id="path4852"
   fill="black"
   stroke-width="0"
   d="M238.3,708.45 L238.33,708.45 L238.35,708.45 L238.38,708.45 L238.4,708.45 L238.41,708.45 L238.42,708.45 L238.44,708.46 L238.45,708.46 L238.46,708.46 L238.48,708.46 L238.49,708.47 L238.5,708.47 L238.52,708.47 L238.53,708.48 L238.54,708.48 L238.55,708.49 L238.56,708.5 L238.57,708.51 L238.58,708.51 L238.59,708.52 L238.59,708.53 L238.6,708.53 L238.6,708.54 L238.6,708.54 L238.61,708.55 L238.61,708.56 L238.61,708.56 L238.62,708.57 L238.62,708.58 L238.62,708.58 L238.62,708.59 L238.62,708.6 L238.62,708.6 L238.63,708.61 L238.63,708.62 L238.63,708.63 L238.63,708.64 L238.63,708.65 C238.63,708.85,238.44,708.85,238.29,708.85 H232.34 C232.19,708.85,232,708.85,232,708.65 C232,708.45,232.19,708.45,232.33,708.45 Z " />
<path
   id="path4854"
   fill="black"
   stroke-width="0"
   d="M244.89,713.49 L244.89,713.51 L244.89,713.52 L244.89,713.53 L244.89,713.54 L244.89,713.55 L244.89,713.56 L244.89,713.57 L244.89,713.57 L244.89,713.58 L244.89,713.59 L244.89,713.6 L244.89,713.61 L244.89,713.61 L244.89,713.62 L244.89,713.63 L244.89,713.64 L244.89,713.64 L244.88,713.65 L244.88,713.66 L244.88,713.67 L244.88,713.68 L244.87,713.69 L244.87,713.7 L244.87,713.71 L244.86,713.71 L244.86,713.72 L244.85,713.72 L244.84,713.73 L244.83,713.73 L244.83,713.74 L244.82,713.74 L244.82,713.74 L244.81,713.74 L244.8,713.74 L244.8,713.75 L244.79,713.75 L244.79,713.75 L244.78,713.75 L244.77,713.75 L244.77,713.75 L244.76,713.75 L244.75,713.75 L244.74,713.75 L244.74,713.75 L244.73,713.75 L244.72,713.75 L244.71,713.75 L244.7,713.75 L244.69,713.75 L244.68,713.75 L244.67,713.75 L244.66,713.75 C244.04,713.12,243.17,713.12,242.85,713.12 V712.81 C243.05,712.81,243.63,712.81,244.15,713.07 V707.91 C244.15,707.55,244.12,707.43,243.23,707.43 H242.91 V707.13 C243.26,707.16,244.12,707.16,244.52,707.16 C244.92,707.16,245.79,707.16,246.14,707.13 V707.43 H245.82 C244.92,707.43,244.89,707.54,244.89,707.91 Z " />
</g>  </g>
</svg>
